<svg xmlns="http://www.w3.org/2000/svg" xmlns:xlink="http://www.w3.org/1999/xlink" width="6912" zoomAndPan="magnify" viewBox="0 0 5184 2592.000001" height="3456" preserveAspectRatio="xMidYMid meet" version="1.0"><defs><g/><clipPath id="id1"><path d="M 4666.8125 396.921875 L 5120.386719 396.921875 L 5120.386719 850.496094 L 4666.8125 850.496094 Z M 4666.8125 396.921875 " clip-rule="nonzero"/></clipPath></defs><g fill="#ffffff" fill-opacity="1"><g transform="translate(57.90067, 1445.404475)"><g><path d="M 499.171875 -511.78125 L 608.203125 -511.78125 C 622.054688 -511.78125 632.441406 -507.820312 639.359375 -499.90625 C 646.285156 -492 649.003906 -481.375 647.515625 -468.03125 L 601.53125 0 L 494.71875 0 L 539.234375 -423.515625 L 526.625 -423.515625 L 405.71875 -104.578125 C 398.300781 -81.835938 382.234375 -70.46875 357.515625 -70.46875 L 283.34375 -70.46875 C 257.625 -70.46875 243.53125 -83.078125 241.0625 -108.296875 L 204.71875 -423.515625 L 192.109375 -423.515625 L 118.671875 0 L 11.875 0 L 97.171875 -471.734375 C 99.640625 -485.578125 104.332031 -495.710938 111.25 -502.140625 C 118.175781 -508.566406 128.316406 -511.78125 141.671875 -511.78125 L 247.734375 -511.78125 C 271.960938 -511.78125 285.3125 -498.925781 287.78125 -473.21875 L 316.71875 -218.0625 C 319.1875 -197.789062 320.421875 -173.5625 320.421875 -145.375 L 330.8125 -145.375 C 337.726562 -168.125 345.640625 -191.613281 354.546875 -215.84375 L 450.96875 -476.921875 C 458.382812 -499.671875 474.453125 -511.289062 499.171875 -511.78125 Z M 499.171875 -511.78125 "/></g></g></g><g fill="#ffffff" fill-opacity="1"><g transform="translate(761.598643, 1445.404475)"><g><path d="M 272.203125 -166.890625 L 249.21875 0 L 135 0 L 159.46875 -172.828125 L 40.796875 -511.78125 L 154.28125 -511.78125 L 212.125 -321.90625 C 217.570312 -300.144531 220.789062 -278.140625 221.78125 -255.890625 L 229.9375 -255.890625 C 234.875 -278.640625 243.773438 -301.140625 256.640625 -323.390625 L 367.890625 -511.78125 L 489.53125 -511.78125 Z M 272.203125 -166.890625 "/></g></g></g><g fill="#ffffff" fill-opacity="1"><g transform="translate(1239.880508, 1445.404475)"><g/></g></g><g fill="#ffffff" fill-opacity="1"><g transform="translate(1430.45999, 1445.404475)"><g><path d="M 457.640625 -419.8125 L 304.84375 -419.8125 L 246.25 0 L 132.765625 0 L 192.109375 -419.8125 L 40.046875 -419.8125 L 52.65625 -511.78125 L 470.25 -511.78125 Z M 457.640625 -419.8125 "/></g></g></g><g fill="#ffffff" fill-opacity="1"><g transform="translate(1900.585193, 1445.404475)"><g><path d="M 134.25 0 L 20.765625 0 L 92.71875 -511.78125 L 206.203125 -511.78125 Z M 134.25 0 "/></g></g></g><g fill="#ffffff" fill-opacity="1"><g transform="translate(2146.777379, 1445.404475)"><g><path d="M 522.171875 -511.78125 L 455.421875 -38.5625 C 451.953125 -12.851562 437.859375 0 413.140625 0 L 350.09375 0 C 338.71875 0 330.1875 -2.71875 324.5 -8.15625 C 318.8125 -13.59375 313.25 -22.742188 307.8125 -35.609375 L 206.203125 -308.5625 C 196.804688 -333.28125 189.390625 -358.988281 183.953125 -385.6875 L 176.53125 -385.6875 C 175.539062 -355.53125 173.5625 -328.832031 170.59375 -305.59375 L 128.3125 0 L 20.765625 0 L 87.515625 -473.21875 C 90.984375 -498.925781 105.328125 -511.78125 130.546875 -511.78125 L 192.84375 -511.78125 C 203.726562 -511.78125 212.132812 -508.9375 218.0625 -503.25 C 224 -497.5625 229.441406 -488.539062 234.390625 -476.1875 L 333.03125 -212.125 C 344.40625 -181.96875 353.304688 -154.28125 359.734375 -129.0625 L 368.640625 -129.0625 C 368.640625 -158.238281 370.367188 -185.679688 373.828125 -211.390625 L 414.625 -511.78125 Z M 522.171875 -511.78125 "/></g></g></g><g fill="#ffffff" fill-opacity="1"><g transform="translate(2708.107237, 1445.404475)"><g><path d="M 418.328125 -422.78125 L 226.96875 -422.78125 C 212.625 -422.78125 202.359375 -419.9375 196.171875 -414.25 C 189.992188 -408.5625 185.921875 -398.054688 183.953125 -382.734375 L 172.828125 -305.59375 L 374.5625 -305.59375 L 364.1875 -225.484375 L 161.6875 -225.484375 L 148.34375 -126.828125 C 146.363281 -112.984375 147.96875 -103.21875 153.15625 -97.53125 C 158.351562 -91.84375 167.875 -89 181.71875 -89 L 370.859375 -89 L 367.890625 -5.1875 C 324.378906 -0.25 250.457031 2.21875 146.125 2.21875 C 104.582031 2.21875 74.164062 -8.78125 54.875 -30.78125 C 35.59375 -52.78125 28.425781 -82.820312 33.375 -120.90625 L 74.171875 -413.140625 C 78.617188 -444.785156 91.347656 -469.507812 112.359375 -487.3125 C 133.378906 -505.113281 161.445312 -514.015625 196.5625 -514.015625 C 304.351562 -514.015625 382.972656 -511.296875 432.421875 -505.859375 Z M 418.328125 -422.78125 "/></g></g></g><g fill="#ffffff" fill-opacity="1"><g transform="translate(3161.919838, 1445.404475)"><g><path d="M 20.765625 0 L 92.71875 -511.78125 C 138.207031 -516.238281 201.253906 -518.46875 281.859375 -518.46875 C 345.640625 -518.46875 392.238281 -506.722656 421.65625 -483.234375 C 451.082031 -459.742188 461.84375 -419.566406 453.9375 -362.703125 C 448.988281 -326.609375 437.738281 -298.300781 420.1875 -277.78125 C 402.632812 -257.257812 375.5625 -244.769531 338.96875 -240.3125 L 338.21875 -235.859375 C 372.34375 -227.953125 392.863281 -201.75 399.78125 -157.25 L 426.484375 0 L 310.78125 0 L 287.046875 -158.734375 C 285.066406 -174.554688 280.863281 -185.304688 274.4375 -190.984375 C 268.007812 -196.671875 257.875 -199.515625 244.03125 -199.515625 L 159.46875 -200.265625 L 131.28125 0 Z M 172.078125 -287.046875 L 252.1875 -287.046875 C 281.851562 -287.046875 302.988281 -292.484375 315.59375 -303.359375 C 328.207031 -314.242188 336.738281 -334.519531 341.1875 -364.1875 C 345.144531 -389.894531 342.671875 -407.570312 333.765625 -417.21875 C 324.867188 -426.863281 306.820312 -431.6875 279.625 -431.6875 L 192.109375 -430.9375 Z M 172.078125 -287.046875 "/></g></g></g><g fill="#ffffff" fill-opacity="1"><g transform="translate(3666.895612, 1445.404475)"><g><path d="M 320.421875 -133.515625 L 143.890625 -133.515625 L 89 0 L -28.921875 0 L 186.171875 -484.34375 C 193.097656 -502.632812 206.695312 -511.78125 226.96875 -511.78125 L 333.78125 -511.78125 C 343.164062 -511.78125 351.441406 -508.691406 358.609375 -502.515625 C 365.785156 -496.335938 369.625 -488.796875 370.125 -479.890625 L 450.21875 0 L 337.484375 0 Z M 308.5625 -223.25 L 288.53125 -378.28125 C 287.039062 -389.15625 285.800781 -405.71875 284.8125 -427.96875 L 263.3125 -427.96875 C 254.40625 -402.75 248.472656 -386.429688 245.515625 -379.015625 L 180.984375 -223.25 Z M 308.5625 -223.25 "/></g></g></g><g fill="#ffffff" fill-opacity="1"><g transform="translate(4176.320622, 1445.404475)"><g><path d="M 20.765625 0 L 92.71875 -511.78125 C 138.207031 -516.238281 201.253906 -518.46875 281.859375 -518.46875 C 345.640625 -518.46875 392.238281 -506.722656 421.65625 -483.234375 C 451.082031 -459.742188 461.84375 -419.566406 453.9375 -362.703125 C 448.988281 -326.609375 437.738281 -298.300781 420.1875 -277.78125 C 402.632812 -257.257812 375.5625 -244.769531 338.96875 -240.3125 L 338.21875 -235.859375 C 372.34375 -227.953125 392.863281 -201.75 399.78125 -157.25 L 426.484375 0 L 310.78125 0 L 287.046875 -158.734375 C 285.066406 -174.554688 280.863281 -185.304688 274.4375 -190.984375 C 268.007812 -196.671875 257.875 -199.515625 244.03125 -199.515625 L 159.46875 -200.265625 L 131.28125 0 Z M 172.078125 -287.046875 L 252.1875 -287.046875 C 281.851562 -287.046875 302.988281 -292.484375 315.59375 -303.359375 C 328.207031 -314.242188 336.738281 -334.519531 341.1875 -364.1875 C 345.144531 -389.894531 342.671875 -407.570312 333.765625 -417.21875 C 324.867188 -426.863281 306.820312 -431.6875 279.625 -431.6875 L 192.109375 -430.9375 Z M 172.078125 -287.046875 "/></g></g></g><g fill="#ffffff" fill-opacity="1"><g transform="translate(4681.296396, 1445.404475)"><g><path d="M 272.203125 -166.890625 L 249.21875 0 L 135 0 L 159.46875 -172.828125 L 40.796875 -511.78125 L 154.28125 -511.78125 L 212.125 -321.90625 C 217.570312 -300.144531 220.789062 -278.140625 221.78125 -255.890625 L 229.9375 -255.890625 C 234.875 -278.640625 243.773438 -301.140625 256.640625 -323.390625 L 367.890625 -511.78125 L 489.53125 -511.78125 Z M 272.203125 -166.890625 "/></g></g></g><g fill="#b0b7bc" fill-opacity="1"><g transform="translate(1097.881669, 2057.085341)"><g><path d="M 199.578125 -219.28125 L 119.671875 -219.28125 L 119.671875 0 L 88.140625 0 L 88.140625 -219.28125 L 8.59375 -219.28125 L 8.59375 -247.21875 L 199.578125 -247.21875 Z M 199.578125 -219.28125 "/></g></g></g><g fill="#b0b7bc" fill-opacity="1"><g transform="translate(1560.486945, 2057.085341)"><g><path d="M 205.296875 0 L 171.625 0 L 149.765625 -77.390625 C 146.660156 -86.703125 142.476562 -93.328125 137.21875 -97.265625 C 131.96875 -101.210938 125.160156 -103.1875 116.796875 -103.1875 C 108.441406 -103.1875 98.234375 -103.242188 86.171875 -103.359375 C 74.109375 -103.484375 66.164062 -103.546875 62.34375 -103.546875 L 62.34375 0 L 31.171875 0 L 31.171875 -247.21875 C 51.234375 -249.375 79.660156 -250.453125 116.453125 -250.453125 C 145.828125 -250.453125 166.484375 -245.375 178.421875 -235.21875 C 190.367188 -225.070312 196.34375 -206.378906 196.34375 -179.140625 C 196.34375 -158.835938 192.816406 -143.671875 185.765625 -133.640625 C 178.722656 -123.609375 167.082031 -117.519531 150.84375 -115.375 L 150.84375 -113.578125 C 157.53125 -111.910156 163.617188 -108.03125 169.109375 -101.9375 C 174.609375 -95.84375 178.671875 -87.898438 181.296875 -78.109375 Z M 62.34375 -130.421875 L 115.734375 -130.421875 C 134.359375 -130.660156 147.132812 -134.003906 154.0625 -140.453125 C 160.988281 -146.898438 164.453125 -159.203125 164.453125 -177.359375 C 164.453125 -195.273438 160.988281 -207.394531 154.0625 -213.71875 C 147.132812 -220.050781 134.359375 -223.21875 115.734375 -223.21875 C 89.453125 -223.21875 71.65625 -223.097656 62.34375 -222.859375 Z M 62.34375 -130.421875 "/></g></g></g><g fill="#b0b7bc" fill-opacity="1"><g transform="translate(2036.347927, 2057.085341)"><g><path d="M 162.3125 -77.390625 L 60.546875 -77.390625 L 36.1875 0 L 3.578125 0 L 83.125 -238.625 C 84.5625 -244.351562 88.503906 -247.21875 94.953125 -247.21875 L 127.90625 -247.21875 C 134.363281 -247.21875 138.304688 -244.351562 139.734375 -238.625 L 219.28125 0 L 186.671875 0 Z M 153.703125 -104.625 L 122.53125 -202.796875 C 120.382812 -209.003906 118.359375 -215.691406 116.453125 -222.859375 L 106.421875 -222.859375 L 100.328125 -202.796875 L 69.15625 -104.625 Z M 153.703125 -104.625 "/></g></g></g><g fill="#b0b7bc" fill-opacity="1"><g transform="translate(2513.641759, 2057.085341)"><g><path d="M 212.109375 -247.21875 L 137.234375 -8.953125 C 135.078125 -2.984375 131.015625 0 125.046875 0 L 93.15625 0 C 86.707031 0 82.644531 -2.984375 80.96875 -8.953125 L 6.09375 -247.21875 L 38.703125 -247.21875 L 97.09375 -51.234375 C 100.4375 -39.296875 102.828125 -30.335938 104.265625 -24.359375 L 113.9375 -24.359375 C 116.320312 -34.148438 118.832031 -43.226562 121.46875 -51.59375 L 179.5 -247.21875 Z M 212.109375 -247.21875 "/></g></g></g><g fill="#b0b7bc" fill-opacity="1"><g transform="translate(2986.27817, 2057.085341)"><g><path d="M 181.296875 -26.15625 L 182.734375 -1.796875 C 160.753906 -0.359375 125.398438 0.359375 76.671875 0.359375 C 62.097656 0.359375 50.570312 -3.519531 42.09375 -11.28125 C 33.613281 -19.050781 29.253906 -29.503906 29.015625 -42.640625 L 29.015625 -204.59375 C 29.253906 -217.726562 33.613281 -228.175781 42.09375 -235.9375 C 50.570312 -243.695312 62.097656 -247.578125 76.671875 -247.578125 C 125.398438 -247.578125 160.753906 -246.863281 182.734375 -245.4375 L 181.296875 -220.703125 L 82.046875 -220.703125 C 67.710938 -220.703125 60.546875 -212.820312 60.546875 -197.0625 L 60.546875 -143.3125 L 167.328125 -143.3125 L 167.328125 -117.875 L 60.546875 -117.875 L 60.546875 -50.15625 C 60.546875 -34.15625 67.710938 -26.15625 82.046875 -26.15625 Z M 181.296875 -26.15625 "/></g></g></g><g fill="#b0b7bc" fill-opacity="1"><g transform="translate(3441.359733, 2057.085341)"><g><path d="M 61.625 -247.21875 L 61.625 -50.15625 C 61.625 -34.394531 69.628906 -26.515625 85.640625 -26.515625 L 174.84375 -26.515625 L 176.28125 -2.15625 C 155.5 -0.476562 123.609375 0.359375 80.609375 0.359375 C 47.171875 0.359375 30.453125 -15.164062 30.453125 -46.21875 L 30.453125 -247.21875 Z M 61.625 -247.21875 "/></g></g></g><g fill="#b0b7bc" fill-opacity="1"><g transform="translate(3879.961306, 2057.085341)"><g><path d="M 119.671875 -104.625 L 68.4375 -117.515625 C 51 -121.816406 38.515625 -129.519531 30.984375 -140.625 C 23.460938 -151.738281 19.703125 -166.96875 19.703125 -186.3125 C 19.703125 -200.644531 21.191406 -212.171875 24.171875 -220.890625 C 27.160156 -229.609375 32.296875 -236.175781 39.578125 -240.59375 C 46.867188 -245.007812 54.992188 -247.9375 63.953125 -249.375 C 72.910156 -250.8125 84.914062 -251.53125 99.96875 -251.53125 C 129.101562 -251.050781 153.585938 -248.660156 173.421875 -244.359375 L 171.265625 -221.421875 C 148.097656 -222.617188 124.804688 -223.21875 101.390625 -223.21875 C 90.890625 -223.21875 83.128906 -222.976562 78.109375 -222.5 C 73.085938 -222.019531 68.1875 -220.585938 63.40625 -218.203125 C 58.632812 -215.816406 55.472656 -212.054688 53.921875 -206.921875 C 52.367188 -201.785156 51.59375 -194.675781 51.59375 -185.59375 C 51.59375 -172.457031 53.921875 -163.140625 58.578125 -157.640625 C 63.234375 -152.148438 71.296875 -147.972656 82.765625 -145.109375 L 132.921875 -132.5625 C 151.316406 -128.03125 164.21875 -120.269531 171.625 -109.28125 C 179.03125 -98.289062 182.734375 -82.882812 182.734375 -63.0625 C 182.734375 -35.832031 176.582031 -17.796875 164.28125 -8.953125 C 151.976562 -0.117188 130.539062 4.296875 99.96875 4.296875 C 73.925781 4.296875 48.367188 2.023438 23.296875 -2.515625 L 25.4375 -25.796875 C 65.570312 -24.359375 90.773438 -23.757812 101.046875 -24 C 120.628906 -24 133.820312 -26.503906 140.625 -31.515625 C 147.4375 -36.535156 150.84375 -47.289062 150.84375 -63.78125 C 150.84375 -77.394531 148.515625 -86.890625 143.859375 -92.265625 C 139.203125 -97.640625 131.140625 -101.757812 119.671875 -104.625 Z M 119.671875 -104.625 "/></g></g></g><path fill="#b0b7bc" d="M 4725.445312 705.59375 L 5048.964844 464.691406 L 4815.097656 742.253906 C 4813.835938 741.503906 4812.722656 740.507812 4811.34375 739.953125 Z M 4825.417969 752.21875 C 4825.390625 752.160156 4825.339844 752.136719 4825.316406 752.082031 L 5079.632812 450.519531 L 4863.261719 823.921875 Z M 5038.421875 830.78125 L 4917.359375 782.363281 C 4914.472656 781.226562 4911.480469 780.839844 4908.519531 780.671875 L 5083.160156 467.792969 Z M 5038.421875 830.78125 " fill-opacity="1" fill-rule="nonzero"/><g clip-path="url(#id1)"><path fill="#ffffff" d="M 5113.902344 399.191406 C 5111.5625 397.667969 5108.882812 396.921875 5106.203125 396.921875 C 5103.46875 396.921875 5100.730469 397.695312 5098.351562 399.304688 L 4673.128906 682.785156 C 4668.746094 685.691406 4666.339844 690.8125 4666.894531 696.042969 C 4667.433594 701.277344 4670.832031 705.789062 4675.71875 707.726562 L 4786.617188 752.105469 L 4838.765625 843.355469 C 4841.257812 847.730469 4845.894531 850.441406 4850.914062 850.496094 L 4851.074219 850.496094 C 4856.042969 850.496094 4860.664062 847.867188 4863.230469 843.597656 L 4892.671875 794.515625 L 5030.074219 849.46875 C 5031.757812 850.160156 5033.550781 850.496094 5035.332031 850.496094 C 5037.742188 850.496094 5040.140625 849.886719 5042.277344 848.664062 C 5046.023438 846.5625 5048.617188 842.894531 5049.320312 838.644531 L 5120.191406 413.421875 C 5121.113281 407.855469 5118.648438 402.265625 5113.902344 399.191406 M 4711.273438 691.421875 L 5039.761719 472.417969 L 4800.921875 728.074219 C 4799.65625 727.328125 4798.542969 726.335938 4797.164062 725.78125 Z M 4811.242188 738.042969 C 4811.214844 737.984375 4811.160156 737.960938 4811.140625 737.90625 L 5079.628906 450.523438 L 4850.738281 807.175781 Z M 5024.25 816.609375 L 4903.191406 768.191406 C 4900.296875 767.054688 4897.308594 766.667969 4894.34375 766.5 L 5080.761719 477.511719 Z M 5024.25 816.609375 " fill-opacity="1" fill-rule="nonzero"/></g></svg>